<svg xmlns="http://www.w3.org/2000/svg" version="1.1" xmlns:xlink="http://www.w3.org/1999/xlink" xmlns:svgjs="http://svgjs.dev/svgjs" width="1000" height="1000" viewBox="0 0 1000 1000"><rect width="1000" height="1000" fill="#ffffff"></rect><g transform="matrix(0.7,0,0,0.7,149.57575757575756,282.1265587044535)"><svg viewBox="0 0 396 247" data-background-color="#ffffff" preserveAspectRatio="xMidYMid meet" height="623" width="1000" xmlns="http://www.w3.org/2000/svg" xmlns:xlink="http://www.w3.org/1999/xlink"><g id="tight-bounds" transform="matrix(1,0,0,1,0.2400000000000091,-0.09999999999999432)"><svg viewBox="0 0 395.52 247.2" height="247.2" width="395.52"><g><svg></svg></g><g><svg viewBox="0 0 395.52 247.2" height="247.2" width="395.52"><g transform="matrix(1,0,0,1,39.55199999999999,106.42549941792782)"><svg viewBox="0 0 316.416 34.349001164144354" height="34.349001164144354" width="316.416"><g><svg viewBox="0 0 316.416 34.349001164144354" height="34.349001164144354" width="316.416"><g><svg viewBox="0 0 316.416 34.349001164144354" height="34.349001164144354" width="316.416"><g><svg viewBox="0 0 316.416 34.349001164144354" height="34.349001164144354" width="316.416"><g><svg viewBox="0 0 316.416 34.349001164144354" height="34.349001164144354" width="316.416"><g transform="matrix(1,0,0,1,0,0)"><svg width="316.416" viewBox="3.65 -36.85 343.58000000000004 37.300000000000004" height="34.349001164144354" data-palette-color="#ba3b0a"><path d="M33.8-32.4L33.8-32.4 33.8-3.7Q33.8-1.85 35.15-1.3L35.15-1.3Q33.85 0.45 31.95 0.45L31.95 0.45Q28.55 0.45 28.55-3.75L28.55-3.75 28.55-16.3 10.25-16.3 10.25-3.7Q10.25-1.9 11.6-1.3L11.6-1.3Q10.4 0.45 8.4 0.45L8.4 0.45Q5 0.45 5-3.75L5-3.75 5-32.45Q5-34.2 3.65-34.8L3.65-34.8Q4.8-36.55 6.8-36.55L6.8-36.55Q10.25-36.55 10.25-32.4L10.25-32.4 10.25-20 28.55-20 28.55-32.45Q28.55-34.2 27.2-34.8L27.2-34.8Q28.35-36.55 30.35-36.55L30.35-36.55Q33.8-36.55 33.8-32.4ZM53.15-4.25L53.15-4.25 62.7-4.25Q65.75-4.25 67.5-6.3L67.5-6.3Q69-5.55 69-3.78 69-2 67.6-1 66.2 0 63.25 0L63.25 0 52.65 0Q48.45 0 46.47-1.73 44.5-3.45 44.5-7.3L44.5-7.3 44.5-31.8Q44.5-33.6 43.1-34.2L43.1-34.2Q44.5-36.15 47.25-36.15L47.25-36.15 63.3-36.15Q69-36.15 69-33.1L69-33.1Q69-31.4 67.5-30.65L67.5-30.65Q65.9-31.85 62.7-31.85L62.7-31.85 49.75-31.85 49.75-21 59.25-21Q62.35-21 63.65-20.45 64.95-19.9 64.95-18.4 64.95-16.9 63.6-16.05L63.6-16.05Q62.05-16.75 58.8-16.75L58.8-16.75 49.75-16.75 49.75-7.7Q49.75-5.85 50.55-5.05 51.35-4.25 53.15-4.25ZM77.45-3.75L77.45-3.75 77.45-32.45Q77.45-34.2 76.05-34.8L76.05-34.8Q77.34-36.55 79.34-36.55 81.34-36.55 82.59-35.7 83.84-34.85 85.09-32.9L85.09-32.9 101.25-7.05 101.25-32.45Q101.25-34.2 99.9-34.8L99.9-34.8Q101.09-36.55 103.09-36.55L103.09-36.55Q106.55-36.55 106.55-32.4L106.55-32.4 106.55-3.7Q106.55-1.9 107.59-1L107.59-1Q106.5 0.45 104.5 0.45 102.5 0.45 100.97-0.78 99.45-2 97.7-4.75L97.7-4.75 82.7-28.4 82.7-3.7Q82.7-1.85 84.05-1.3L84.05-1.3Q82.75 0.45 80.84 0.45L80.84 0.45Q77.45 0.45 77.45-3.75ZM128.74-27.85L122.99-11.6 133.79-11.6 128.74-27.85ZM140.84 0.45L140.84 0.45Q139.34 0.45 138.44-0.3 137.54-1.05 136.84-2.95L136.84-2.95 135.09-8.05 121.69-8.05 119.79-3.15Q118.44 0.45 116.09 0.45L116.09 0.45Q115.04 0.45 114.19-0.1 113.34-0.65 112.99-1.45L112.99-1.45Q114.19-1.95 115.09-4.2L115.09-4.2 126.39-32.95Q125.79-34.45 124.89-35.15L124.89-35.15Q126.19-36.55 127.89-36.55 129.59-36.55 130.42-35.63 131.24-34.7 132.04-32.5L132.04-32.5 141.84-4.45Q142.69-2.05 144.19-1.25L144.19-1.25Q143.24 0.45 140.84 0.45ZM188.74-33L188.74-33Q188.74-34.6 187.69-35.45L187.69-35.45Q188.89-36.55 190.54-36.55L190.54-36.55Q193.84-36.55 193.84-33.3L193.84-33.3Q193.84-32.75 193.54-31.15L193.54-31.15 186.14-3.6Q185.14 0.45 181.82 0.45 178.49 0.45 177.59-3.6L177.59-3.6 170.84-29.05 163.99-3.6Q163.49-1.4 162.44-0.48 161.39 0.45 159.64 0.45 157.89 0.45 156.92-0.43 155.94-1.3 155.39-3.6L155.39-3.6 148.09-31.45Q147.44-33.95 145.99-34.6L145.99-34.6Q147.24-36.55 149.54-36.55L149.54-36.55Q151.04-36.55 151.99-35.58 152.94-34.6 153.44-32.2L153.44-32.2 159.89-5.1 167.34-33.4Q167.84-35.15 168.77-35.85 169.69-36.55 171.19-36.55L171.19-36.55Q174.29-36.55 175.04-33.4L175.04-33.4 182.14-4.95 188.54-31.35Q188.74-32.25 188.74-33ZM210.89 0.4L210.89 0.4Q207.64 0.4 207.64-4L207.64-4 207.69-15.9 198.54-31.7Q197.29-33.6 195.54-33.65L195.54-33.65Q196.39-36.55 199.04-36.55 201.69-36.55 203.54-33.3L203.54-33.3 210.74-20.7 218.09-31.7Q219.04-33 219.04-34 219.04-35 218.29-35.8L218.29-35.8Q219.69-36.55 221.26-36.55 222.84-36.55 223.69-35.83 224.54-35.1 224.54-33.8 224.54-32.5 223.44-30.85L223.44-30.85 212.94-16 212.89-3.5Q212.89-1.55 213.74-0.45L213.74-0.45Q212.49 0.4 210.89 0.4ZM244.43-7.05L244.43-7.05 244.43-32.45Q244.43-34.2 243.08-34.8L243.08-34.8Q244.33-36.55 246.28-36.55L246.28-36.55Q249.73-36.55 249.73-32.4L249.73-32.4 249.73-7.45Q249.73-5.6 250.53-4.8 251.33-4 253.13-4L253.13-4 260.48-4Q263.43-4 264.93-6.05L264.93-6.05Q266.28-5.5 266.28-3.83 266.28-2.15 264.88-1.07 263.48 0 260.58 0L260.58 0 252.38 0Q248.18 0 246.31-1.6 244.43-3.2 244.43-7.05ZM274.08-36.15L274.08-36.15 292.93-36.15Q296.33-36.15 296.33-33.45L296.33-33.45Q296.33-32.25 295.38-31.3L295.38-31.3Q293.88-32.05 291.33-32.05L291.33-32.05 285.28-32.05 285.28-3.7Q285.28-1.9 286.63-1.3L286.63-1.3Q285.43 0.45 283.48 0.45L283.48 0.45Q280.03 0.45 280.03-3.75L280.03-3.75 280.03-32.05 272.43-32.05Q269.08-32.05 269.08-34.75L269.08-34.75Q269.08-35.95 269.98-36.85L269.98-36.85Q271.43-36.15 274.08-36.15ZM313.08-36.55L313.08-36.55Q320.78-36.55 326.28-32.05L326.28-32.05Q328.98-29.85 330.53-26.23 332.08-22.6 332.08-18 332.08-13.4 330.53-9.8 328.98-6.2 326.28-4L326.28-4Q320.83 0.45 313.08 0.45L313.08 0.45Q306.88 0.45 304.48-1.25 302.08-2.95 302.08-6.55L302.08-6.55 302.13-30.95Q302.13-33.35 301.18-34.55L301.18-34.55Q306.83-36.55 313.08-36.55ZM313.08-3.3L313.08-3.3Q318.88-3.3 322.7-7.15 326.53-11 326.53-18 326.53-25 322.7-28.88 318.88-32.75 313.08-32.75L313.08-32.75Q310.23-32.75 307.48-31.9L307.48-31.9 307.38-6.4Q307.38-4.7 308.43-4 309.48-3.3 313.08-3.3ZM344.02-7.15Q345.52-7.15 346.38-6.28 347.23-5.4 347.23-3.9 347.23-2.4 345.93-1.07 344.63 0.25 343.13 0.25 341.63 0.25 340.75-0.65 339.88-1.55 339.88-3.05 339.88-4.55 341.2-5.85 342.52-7.15 344.02-7.15Z" opacity="1" transform="matrix(1,0,0,1,0,0)" fill="#000000" class="undefined-text-0" data-fill-palette-color="primary" id="text-0"></path></svg></g></svg></g></svg></g></svg></g></svg></g></svg></g><g mask="url(#85ecc3fd-9ef4-4fde-8dbe-d3be267620f5)"><g transform="matrix(3.2533701305593885, 0, 0, 3.2533701305593885, 82.47032268336693, 1)"><svg xmlns="http://www.w3.org/2000/svg" xmlns:xlink="http://www.w3.org/1999/xlink" version="1.1" x="0" y="0" viewBox="14.563 12.315999999999999 70.87400000000001 75.368" enable-background="new 0 0 100 100" xml:space="preserve" height="75.368" width="70.87400000000001" class="icon-none" data-fill-palette-color="accent" id="none"><path d="M68.475 12.316l-6.903 18.526v18.588c1.769 0.65 3.038 2.336 3.038 4.33 0 2.557-2.073 4.629-4.629 4.629-2.557 0-4.629-2.072-4.629-4.629 0-2.101 1.409-3.854 3.327-4.42V30.329H58.7l-0.021-0.009 6.709-18.004h-7.515l-9.175 22.734v25.29c2.068 0.462 3.616 2.302 3.616 4.51 0 2.556-2.072 4.628-4.629 4.628-2.556 0-4.628-2.072-4.628-4.628 0-1.836 1.076-3.407 2.625-4.155h-0.026V34.581v-0.12l0.033-0.082 8.904-22.063H44.518l-9.175 22.734v35.372c1.481 0.771 2.504 2.303 2.504 4.089 0 2.557-2.072 4.629-4.629 4.629-2.556 0-4.628-2.072-4.628-4.629 0-2.242 1.594-4.11 3.711-4.536V34.581v-0.12l0.032-0.082 8.905-22.063H14.563v75.367h7.98V26.045c-1.835-0.607-3.168-2.315-3.168-4.354 0-2.545 2.063-4.606 4.607-4.606s4.607 2.062 4.607 4.606c0 1.891-1.141 3.51-2.769 4.221v61.772h32.713V73.793h0.029l15.158-15.392V37.375c-1.837-0.613-3.169-2.328-3.169-4.37 0-2.557 2.072-4.629 4.629-4.629 2.556 0 4.628 2.072 4.628 4.629 0 2.053-1.346 3.772-3.195 4.379v22.145l0.029 0.029L61.427 75.009v12.675h10.704v-5.62c-1.973-0.53-3.432-2.313-3.432-4.452 0-2.556 2.073-4.628 4.629-4.628 2.557 0 4.629 2.072 4.629 4.628 0 2.09-1.394 3.835-3.295 4.41v5.662h10.775V12.316H68.475z" fill="#000000" data-fill-palette-color="accent"></path></svg></g></g></svg></g><defs><mask id="85ecc3fd-9ef4-4fde-8dbe-d3be267620f5"><rect width="640" height="400" fill="white"></rect><rect width="348.05760000000004" height="50.56695076179744" fill="black" x="145.97119999999998" y="174.71652461910128" id="transform-me" transform="matrix(1,0,0,1,-122.24000000000001,-76.4)"></rect></mask></defs></svg><rect width="395.52" height="247.2" fill="none" stroke="none" visibility="hidden"></rect></g></svg></g></svg>