<svg xmlns="http://www.w3.org/2000/svg" version="1.1" xmlns:xlink="http://www.w3.org/1999/xlink" xmlns:svgjs="http://svgjs.dev/svgjs" width="1000" height="1000" viewBox="0 0 1000 1000"><rect width="1000" height="1000" fill="#ffffff"></rect><g transform="matrix(0.7,0,0,0.7,149.57575757575756,393.5259368867373)"><svg viewBox="0 0 396 120" data-background-color="#282634" preserveAspectRatio="xMidYMid meet" height="303" width="1000" xmlns="http://www.w3.org/2000/svg" xmlns:xlink="http://www.w3.org/1999/xlink"><g id="tight-bounds" transform="matrix(1,0,0,1,0.2400000000000091,0.2399759695376531)"><svg viewBox="0 0 395.52 119.52010147731367" height="119.52010147731367" width="395.52"><g><svg viewBox="0 0 673.1329054291946 203.41048029079775" height="119.52010147731367" width="395.52"><g transform="matrix(1,0,0,1,0,73.59433905490721)"><svg viewBox="0 0 395.52 56.221802180983346" height="56.221802180983346" width="395.52"><g><svg viewBox="0 0 395.52 56.221802180983346" height="56.221802180983346" width="395.52"><g><svg viewBox="0 0 395.52 56.221802180983346" height="56.221802180983346" width="395.52"><g transform="matrix(1,0,0,1,0,0)"><svg width="395.52" viewBox="3.549999952316284 -36.849998474121094 261.33001708984375 37.14999771118164" height="56.221802180983346" data-palette-color="#ff4057"><path d="M5.65 0L5.65 0Q4.9 0 4.23-0.38 3.55-0.75 3.55-1.5L3.55-1.5 3.55-35.1Q3.55-35.85 4.23-36.2 4.9-36.55 5.65-36.55L5.65-36.55Q6.45-36.55 7.1-36.2 7.75-35.85 7.75-35.1L7.75-35.1 7.75-20.7 21.3-20.7 21.3-35.1Q21.3-35.85 21.98-36.2 22.65-36.55 23.4-36.55L23.4-36.55Q24.2-36.55 24.85-36.2 25.5-35.85 25.5-35.1L25.5-35.1 25.5-1.5Q25.5-0.75 24.85-0.38 24.2 0 23.4 0L23.4 0Q22.65 0 21.98-0.38 21.3-0.75 21.3-1.5L21.3-1.5 21.3-17.2 7.75-17.2 7.75-1.5Q7.75-0.75 7.1-0.38 6.45 0 5.65 0ZM52.35 0L34.55 0Q33.85 0 33.25-0.38 32.65-0.75 32.65-1.5L32.65-1.5 32.65-35.05Q32.65-35.8 33.25-36.18 33.85-36.55 34.55-36.55L34.55-36.55 52.35-36.55Q53.15-36.55 53.47-35.95 53.8-35.35 53.8-34.7L53.8-34.7Q53.8-33.95 53.42-33.35 53.05-32.75 52.35-32.75L52.35-32.75 36.85-32.75 36.85-20.05 44.65-20.05Q45.35-20.05 45.72-19.5 46.1-18.95 46.1-18.25L46.1-18.25Q46.1-17.65 45.77-17.1 45.45-16.55 44.65-16.55L44.65-16.55 36.85-16.55 36.85-3.8 52.35-3.8Q53.05-3.8 53.42-3.23 53.8-2.65 53.8-1.85L53.8-1.85Q53.8-1.2 53.47-0.6 53.15 0 52.35 0L52.35 0ZM60.45 0L60.45 0Q59.7 0 59.02-0.38 58.34-0.75 58.34-1.5L58.34-1.5 58.34-35.1Q58.34-35.9 59.02-36.23 59.7-36.55 60.45-36.55L60.45-36.55Q61.25-36.55 61.8-36.25 62.34-35.95 62.8-35.38 63.25-34.8 63.7-33.9L63.7-33.9 76.09-9.55 76.09-35.1Q76.09-35.85 76.77-36.2 77.45-36.55 78.2-36.55L78.2-36.55Q79-36.55 79.65-36.2 80.3-35.85 80.3-35.1L80.3-35.1 80.3-1.5Q80.3-0.75 79.65-0.38 79 0 78.2 0L78.2 0Q77.4 0 76.72-0.55 76.05-1.1 75.59-1.9L75.59-1.9 62.55-27.05 62.55-1.5Q62.55-0.75 61.9-0.38 61.25 0 60.45 0ZM87.24 0L87.24 0Q86.74 0 86.12-0.23 85.49-0.45 85.12-0.85 84.74-1.25 84.74-1.75L84.74-1.75Q84.74-1.95 84.79-2.15L84.79-2.15 95.04-35.4Q95.24-36.15 95.99-36.5 96.74-36.85 97.59-36.85L97.59-36.85Q98.49-36.85 99.24-36.48 99.99-36.1 100.19-35.4L100.19-35.4 110.39-2.15Q110.49-1.95 110.49-1.8L110.49-1.8Q110.49-1.3 110.07-0.9 109.64-0.5 109.04-0.25 108.44 0 107.89 0L107.89 0Q107.34 0 106.94-0.23 106.54-0.45 106.39-0.95L106.39-0.95 104.14-8.4 90.99-8.4 88.84-0.95Q88.69-0.45 88.27-0.23 87.84 0 87.24 0ZM97.59-30.65L91.99-11.85 103.19-11.85 97.59-30.65ZM122.84 0.3L122.84 0.3Q121.99 0.3 121.22-0.08 120.44-0.45 120.24-1.15L120.24-1.15 110.34-34.4Q110.29-34.6 110.29-34.85L110.29-34.85Q110.29-35.35 110.69-35.73 111.09-36.1 111.67-36.33 112.24-36.55 112.79-36.55L112.79-36.55Q113.34-36.55 113.82-36.33 114.29-36.1 114.39-35.6L114.39-35.6 122.84-5.9 127.59-24.2Q127.79-24.9 128.42-25.2 129.04-25.5 129.74-25.5L129.74-25.5Q130.49-25.5 131.09-25.2 131.69-24.9 131.84-24.2L131.84-24.2 136.64-5.9 145.09-35.6Q145.24-36.1 145.67-36.33 146.09-36.55 146.64-36.55L146.64-36.55Q147.24-36.55 147.82-36.33 148.39-36.1 148.79-35.73 149.19-35.35 149.19-34.85L149.19-34.85Q149.19-34.6 149.09-34.4L149.09-34.4 139.29-1.15Q139.04-0.45 138.29-0.08 137.54 0.3 136.64 0.3L136.64 0.3Q135.79 0.3 135.02-0.08 134.24-0.45 134.09-1.15L134.09-1.15 129.74-17.65 125.44-1.15Q125.24-0.45 124.49-0.08 123.74 0.3 122.84 0.3ZM163.49 0L163.49 0Q162.74 0 162.06-0.38 161.39-0.75 161.39-1.5L161.39-1.5 161.39-14.15Q161.39-14.45 161.29-14.65L161.29-14.65 150.94-33.95Q150.84-34.2 150.79-34.43 150.74-34.65 150.74-34.8L150.74-34.8Q150.74-35.3 151.14-35.7 151.54-36.1 152.11-36.33 152.69-36.55 153.24-36.55L153.24-36.55Q153.79-36.55 154.11-36.27 154.44-36 154.74-35.45L154.74-35.45 163.49-18.3 172.29-35.45Q172.59-36 172.94-36.27 173.29-36.55 173.79-36.55L173.79-36.55Q174.34-36.55 174.91-36.33 175.49-36.1 175.89-35.7 176.29-35.3 176.29-34.8L176.29-34.8Q176.29-34.65 176.24-34.43 176.19-34.2 176.09-33.95L176.09-33.95 165.74-14.65Q165.59-14.45 165.59-14.15L165.59-14.15 165.59-1.5Q165.59-0.75 164.94-0.38 164.29 0 163.49 0ZM208.48 0L192.48 0Q191.78 0 191.18-0.38 190.58-0.75 190.58-1.5L190.58-1.5 190.58-35.1Q190.58-35.85 191.26-36.2 191.93-36.55 192.68-36.55L192.68-36.55Q193.48-36.55 194.13-36.2 194.78-35.85 194.78-35.1L194.78-35.1 194.78-3.8 208.48-3.8Q209.18-3.8 209.51-3.23 209.83-2.65 209.83-1.9L209.83-1.9Q209.83-1.2 209.51-0.6 209.18 0 208.48 0L208.48 0ZM217.73 0L217.73 0Q216.93 0 216.28-0.38 215.63-0.75 215.63-1.5L215.63-1.5 215.63-32.65 207.53-32.65Q206.88-32.65 206.48-33.25 206.08-33.85 206.08-34.65L206.08-34.65Q206.08-35.35 206.43-35.95 206.78-36.55 207.53-36.55L207.53-36.55 227.93-36.55Q228.68-36.55 229.03-35.95 229.38-35.35 229.38-34.65L229.38-34.65Q229.38-33.9 229.03-33.27 228.68-32.65 227.93-32.65L227.93-32.65 219.83-32.65 219.83-1.5Q219.83-0.75 219.18-0.38 218.53 0 217.73 0ZM244.28 0L235.43 0Q234.58 0 234.05-0.43 233.53-0.85 233.53-1.45L233.53-1.45 233.53-35.1Q233.53-35.7 234.05-36.13 234.58-36.55 235.43-36.55L235.43-36.55 244.28-36.55Q247.33-36.55 249.78-35.48 252.23-34.4 253.65-32.02 255.08-29.65 255.08-25.65L255.08-25.65 255.08-10.9Q255.08-6.9 253.65-4.53 252.23-2.15 249.78-1.07 247.33 0 244.28 0L244.28 0ZM237.73-32.75L237.73-3.8 244.28-3.8Q247.38-3.8 249.13-5.53 250.88-7.25 250.88-10.9L250.88-10.9 250.88-25.65Q250.88-29.3 249.13-31.03 247.38-32.75 244.28-32.75L244.28-32.75 237.73-32.75ZM262.33 0.3L262.33 0.3Q261.18 0.3 260.43-0.5 259.68-1.3 259.68-2.3L259.68-2.3Q259.68-3.4 260.43-4.17 261.18-4.95 262.33-4.95L262.33-4.95Q263.33-4.95 264.1-4.17 264.88-3.4 264.88-2.3L264.88-2.3Q264.88-1.3 264.1-0.5 263.33 0.3 262.33 0.3Z" opacity="1" transform="matrix(1,0,0,1,0,0)" fill="#000000" class="undefined-text-0" data-fill-palette-color="primary" id="text-0"></path></svg></g></svg></g></svg></g></svg></g><g transform="matrix(1,0,0,1,428.70154542919454,0)"><svg viewBox="0 0 244.43135999999998 203.41048029079775" height="203.41048029079775" width="244.43135999999998"><g><svg viewBox="0 0 244.43135999999998 203.41048029079775" height="203.41048029079775" width="244.43135999999998"><g transform="matrix(1,0,0,1,77.13017270767197,53.76093015272032)"><svg viewBox="0 0 90.17101458465604 95.88861998535711" height="95.88861998535711" width="90.17101458465604"><g><svg xmlns="http://www.w3.org/2000/svg" xmlns:xlink="http://www.w3.org/1999/xlink" version="1.1" x="0" y="0" viewBox="14.562999725341797 12.315999984741211 70.87399291992188 75.36800384521484" enable-background="new 0 0 100 100" xml:space="preserve" height="95.88861998535711" width="90.17101458465604" class="icon-a-0" data-fill-palette-color="accent" id="a-0"><path d="M68.475 12.316l-6.903 18.526v18.588c1.769 0.65 3.038 2.336 3.038 4.33 0 2.557-2.073 4.629-4.629 4.629-2.557 0-4.629-2.072-4.629-4.629 0-2.101 1.409-3.854 3.327-4.42V30.329H58.7l-0.021-0.009 6.709-18.004h-7.515l-9.175 22.734v25.29c2.068 0.462 3.616 2.302 3.616 4.51 0 2.556-2.072 4.628-4.629 4.628-2.556 0-4.628-2.072-4.628-4.628 0-1.836 1.076-3.407 2.625-4.155h-0.026V34.581v-0.12l0.033-0.082 8.904-22.063H44.518l-9.175 22.734v35.372c1.481 0.771 2.504 2.303 2.504 4.089 0 2.557-2.072 4.629-4.629 4.629-2.556 0-4.628-2.072-4.628-4.629 0-2.242 1.594-4.11 3.711-4.536V34.581v-0.12l0.032-0.082 8.905-22.063H14.563v75.367h7.98V26.045c-1.835-0.607-3.168-2.315-3.168-4.354 0-2.545 2.063-4.606 4.607-4.606s4.607 2.062 4.607 4.606c0 1.891-1.141 3.51-2.769 4.221v61.772h32.713V73.793h0.029l15.158-15.392V37.375c-1.837-0.613-3.169-2.328-3.169-4.37 0-2.557 2.072-4.629 4.629-4.629 2.556 0 4.628 2.072 4.628 4.629 0 2.053-1.346 3.772-3.195 4.379v22.145l0.029 0.029L61.427 75.009v12.675h10.704v-5.62c-1.973-0.53-3.432-2.313-3.432-4.452 0-2.556 2.073-4.628 4.629-4.628 2.557 0 4.629 2.072 4.629 4.628 0 2.09-1.394 3.835-3.295 4.41v5.662h10.775V12.316H68.475z" fill="#000000" data-fill-palette-color="accent"></path></svg></g></svg></g><path d="M37.551 79.558V79.558C37.481 79.775 37.362 79.961 37.192 80.117 37.029 80.276 36.839 80.32 36.622 80.25V80.25L22.335 75.659C22.125 75.591 21.999 75.445 21.959 75.222 21.925 75 21.942 74.781 22.012 74.564V74.564C22.084 74.342 22.197 74.153 22.352 73.999 22.513 73.847 22.699 73.805 22.909 73.873V73.873L29.031 75.84 30.881 70.081 24.76 68.114C24.549 68.046 24.424 67.901 24.384 67.677 24.35 67.455 24.367 67.236 24.437 67.02V67.02C24.508 66.797 24.622 66.608 24.777 66.454 24.938 66.302 25.123 66.26 25.334 66.328V66.328L39.621 70.92C39.838 70.989 39.967 71.133 40.01 71.35 40.058 71.569 40.047 71.791 39.976 72.013V72.013C39.906 72.23 39.786 72.416 39.617 72.573 39.453 72.731 39.264 72.775 39.047 72.706V72.706L32.371 70.56 30.52 76.319 37.196 78.465C37.413 78.534 37.542 78.678 37.585 78.895 37.634 79.114 37.622 79.336 37.551 79.558ZM51.555 51.214L47.204 57.862C47.087 58.041 46.933 58.173 46.743 58.256 46.554 58.348 46.365 58.332 46.175 58.208V58.208L33.634 50.001C33.45 49.88 33.359 49.713 33.363 49.5 33.369 49.295 33.43 49.104 33.547 48.925V48.925L37.898 42.277C38.03 42.075 38.194 41.983 38.391 42 38.597 42.015 38.781 42.075 38.943 42.182V42.182C39.128 42.303 39.265 42.46 39.353 42.654 39.442 42.848 39.43 43.032 39.316 43.205V43.205L35.526 48.997 40.269 52.101 42.175 49.188C42.288 49.014 42.446 48.926 42.648 48.922 42.845 48.915 43.03 48.968 43.203 49.082V49.082C43.354 49.181 43.472 49.318 43.557 49.493 43.64 49.66 43.616 49.843 43.484 50.045V50.045L41.578 52.958 46.346 56.078 50.136 50.286C50.25 50.112 50.408 50.024 50.61 50.02 50.817 50.02 51.022 50.086 51.223 50.218V50.218C51.386 50.324 51.512 50.467 51.603 50.646 51.703 50.824 51.687 51.013 51.555 51.214ZM61.371 40.399V40.399C61.202 40.551 61.005 40.653 60.78 40.703 60.559 40.758 60.373 40.701 60.22 40.532V40.532L50.157 29.399C50 29.225 49.962 29.034 50.044 28.825 50.13 28.621 50.257 28.443 50.426 28.291V28.291C50.6 28.134 50.778 28.031 50.96 27.984 51.137 27.941 51.334 27.939 51.55 27.978 51.766 28.017 52.013 28.091 52.292 28.2V28.2L63.691 32.554 56.036 24.085C55.888 23.921 55.853 23.732 55.93 23.518 56.011 23.31 56.137 23.129 56.305 22.976V22.976C56.479 22.819 56.671 22.713 56.882 22.657 57.098 22.607 57.28 22.663 57.428 22.827V22.827L67.491 33.96C67.644 34.129 67.684 34.318 67.612 34.527 67.544 34.742 67.423 34.928 67.25 35.084V35.084C67.071 35.246 66.854 35.334 66.597 35.35 66.336 35.36 66.075 35.321 65.815 35.232V35.232L53.964 30.813 61.612 39.274C61.765 39.443 61.805 39.632 61.733 39.842 61.665 40.056 61.544 40.242 61.371 40.399ZM79.71 26.927V26.927C79.577 26.992 79.413 27.036 79.215 27.058 79.017 27.08 78.844 27.061 78.695 27 78.54 26.942 78.43 26.847 78.365 26.715V26.715C78.339 26.66 78.318 26.603 78.304 26.544V26.544L75.88 11.198C75.837 10.974 75.894 10.763 76.051 10.567 76.202 10.374 76.392 10.221 76.62 10.11V10.11C76.86 9.992 77.104 9.936 77.353 9.941 77.607 9.943 77.807 10.023 77.952 10.183V10.183L88.574 21.512C88.624 21.554 88.66 21.597 88.68 21.639V21.639C88.745 21.771 88.747 21.919 88.686 22.083 88.625 22.247 88.532 22.4 88.408 22.543 88.279 22.688 88.142 22.796 87.997 22.867V22.867C87.847 22.94 87.703 22.974 87.566 22.967 87.428 22.959 87.309 22.899 87.209 22.784V22.784L84.842 20.235 79.563 22.821 80.164 26.236C80.193 26.385 80.165 26.518 80.08 26.634 79.995 26.75 79.872 26.848 79.71 26.927ZM77.838 12.596L79.289 21.235 83.775 19.037ZM104.783 18.149V18.149C104.533 18.193 104.283 18.181 104.034 18.115 103.791 18.042 103.622 17.908 103.528 17.714V17.714L96.65 3.822C96.628 3.771 96.61 3.706 96.596 3.627V3.627C96.571 3.482 96.609 3.344 96.708 3.211 96.802 3.086 96.929 2.976 97.089 2.881 97.249 2.786 97.408 2.724 97.566 2.697V2.697C97.731 2.669 97.888 2.676 98.038 2.718 98.188 2.76 98.288 2.851 98.339 2.992V2.992L104.314 15.421 105.016 7.014C105.039 6.793 105.136 6.624 105.306 6.507 105.475 6.389 105.663 6.313 105.867 6.278V6.278C106.084 6.24 106.289 6.249 106.482 6.304 106.675 6.359 106.809 6.489 106.885 6.693V6.693L110.384 14.377 111.854 0.668C111.876 0.515 111.943 0.395 112.057 0.307 112.171 0.22 112.307 0.163 112.465 0.135V0.135C112.643 0.105 112.823 0.108 113.006 0.144 113.182 0.182 113.339 0.243 113.475 0.328 113.613 0.42 113.695 0.538 113.72 0.683V0.683C113.733 0.762 113.728 0.831 113.704 0.889V0.889L111.911 16.272C111.874 16.489 111.753 16.673 111.548 16.823 111.349 16.966 111.117 17.06 110.854 17.106V17.106C110.603 17.149 110.357 17.137 110.115 17.07 109.865 16.998 109.699 16.863 109.618 16.667V16.667L106.46 9.728 105.811 17.321C105.787 17.536 105.676 17.718 105.478 17.867 105.278 18.01 105.047 18.104 104.783 18.149ZM133.476 16.768V16.768C133.257 16.741 133.055 16.659 132.87 16.522 132.684 16.391 132.604 16.213 132.632 15.987V15.987L133.324 10.382C133.335 10.295 133.327 10.22 133.301 10.157V10.157L129.768 1.028C129.751 0.952 129.739 0.879 129.734 0.811 129.722 0.743 129.719 0.688 129.724 0.648V0.648C129.743 0.496 129.819 0.37 129.952 0.272 130.087 0.168 130.244 0.093 130.425 0.048 130.599 0.002 130.769-0.011 130.935 0.009V0.009C131.094 0.029 131.219 0.085 131.308 0.177 131.392 0.268 131.466 0.402 131.532 0.578V0.578L134.477 8.654 139.317 1.539C139.424 1.384 139.536 1.273 139.652 1.206 139.761 1.139 139.892 1.115 140.045 1.134V1.134C140.204 1.153 140.366 1.207 140.53 1.295 140.688 1.382 140.819 1.492 140.924 1.626 141.03 1.754 141.073 1.894 141.054 2.047V2.047C141.049 2.086 141.036 2.139 141.014 2.204 140.986 2.267 140.955 2.334 140.919 2.404V2.404L135.273 10.4C135.225 10.455 135.196 10.525 135.186 10.611V10.611L134.494 16.217C134.466 16.442 134.35 16.596 134.144 16.679 133.938 16.768 133.715 16.798 133.476 16.768ZM172.885 31.693L166.79 27.97C166.607 27.858 166.471 27.708 166.382 27.521 166.284 27.335 166.294 27.146 166.412 26.952V26.952L174.235 14.144C174.35 13.956 174.521 13.868 174.748 13.882 174.971 13.901 175.18 13.969 175.374 14.088V14.088C175.574 14.21 175.73 14.364 175.844 14.551 175.953 14.743 175.951 14.934 175.836 15.122V15.122L168.547 27.056 173.769 30.246C173.946 30.354 174.034 30.505 174.032 30.7 174.021 30.897 173.958 31.09 173.843 31.279V31.279C173.732 31.461 173.591 31.602 173.42 31.702 173.241 31.804 173.062 31.801 172.885 31.693ZM184.475 41.609V41.609C184.309 41.445 184.196 41.254 184.138 41.037 184.075 40.825 184.123 40.637 184.282 40.475V40.475L194.047 30.564 191.468 28.022C191.329 27.886 191.281 27.716 191.322 27.513 191.363 27.299 191.468 27.107 191.637 26.936V26.936C191.782 26.788 191.954 26.685 192.152 26.627 192.351 26.578 192.528 26.631 192.686 26.786V26.786L199.181 33.186C199.339 33.34 199.392 33.515 199.341 33.709 199.291 33.913 199.193 34.089 199.047 34.236V34.236C198.888 34.398 198.704 34.509 198.497 34.567 198.298 34.625 198.121 34.577 197.963 34.422V34.422L195.384 31.88 185.619 41.792C185.459 41.954 185.273 42.005 185.06 41.945 184.842 41.89 184.647 41.778 184.475 41.609ZM198.506 59.628L196.445 56.255C196.313 56.038 196.259 55.828 196.284 55.625 196.312 55.427 196.403 55.281 196.557 55.187V55.187L209.382 47.354C209.53 47.264 209.699 47.251 209.887 47.316 210.08 47.387 210.242 47.531 210.374 47.748V47.748L212.434 51.121C212.905 51.891 213.195 52.674 213.305 53.469 213.416 54.255 213.279 55.012 212.894 55.742 212.512 56.476 211.813 57.154 210.797 57.774V57.774L205.173 61.21C204.157 61.83 203.235 62.143 202.407 62.147 201.588 62.153 200.851 61.929 200.198 61.474 199.54 61.014 198.976 60.398 198.506 59.628ZM209.461 49.504L198.426 56.244 199.952 58.744C200.433 59.532 201.03 60.014 201.741 60.191 202.452 60.368 203.27 60.174 204.195 59.609V59.609L209.82 56.174C210.744 55.609 211.29 54.97 211.458 54.256 211.625 53.542 211.469 52.792 210.988 52.004V52.004ZM206.328 77.118V77.118C206.22 76.795 206.242 76.491 206.394 76.208 206.551 75.916 206.768 75.723 207.047 75.63V75.63C207.358 75.526 207.661 75.545 207.955 75.686 208.24 75.823 208.437 76.054 208.545 76.377V76.377C208.641 76.663 208.617 76.949 208.473 77.237 208.325 77.533 208.096 77.733 207.785 77.837V77.837C207.506 77.93 207.215 77.904 206.913 77.758 206.619 77.617 206.424 77.403 206.328 77.118ZM27.14 133.135V133.135C27.07 132.918 27.059 132.697 27.106 132.471 27.15 132.239 27.278 132.089 27.488 132.022V132.022L41.897 127.383C42.114 127.313 42.301 127.362 42.46 127.528 42.624 127.686 42.74 127.874 42.81 128.09V128.09C42.884 128.319 42.899 128.543 42.857 128.76 42.821 128.975 42.695 129.118 42.478 129.188V129.188L36.3 131.176 38.169 136.982 44.347 134.993C44.564 134.924 44.751 134.972 44.91 135.139 45.074 135.297 45.19 135.484 45.26 135.701V135.701C45.334 135.93 45.349 136.153 45.307 136.371 45.271 136.586 45.145 136.728 44.928 136.798V136.798L30.519 141.437C30.309 141.504 30.12 141.463 29.952 141.314 29.784 141.164 29.664 140.974 29.59 140.745V140.745C29.52 140.529 29.509 140.308 29.556 140.082 29.6 139.85 29.728 139.7 29.938 139.632V139.632L36.67 137.465 34.801 131.659 28.069 133.826C27.859 133.894 27.67 133.853 27.502 133.703 27.334 133.553 27.214 133.364 27.14 133.135ZM42.456 164.182L38.064 157.478C37.946 157.299 37.886 157.102 37.882 156.889 37.878 156.676 37.969 156.509 38.153 156.388V156.388L50.799 148.103C50.983 147.982 51.173 147.966 51.367 148.055 51.561 148.143 51.716 148.277 51.834 148.456V148.456L56.226 155.161C56.358 155.362 56.374 155.552 56.274 155.729 56.178 155.912 56.049 156.056 55.887 156.163V156.163C55.697 156.287 55.495 156.351 55.282 156.355 55.068 156.359 54.905 156.274 54.791 156.101V156.101L50.965 150.261 46.182 153.394 48.106 156.331C48.223 156.51 48.241 156.69 48.16 156.871 48.088 157.054 47.963 157.205 47.784 157.322V157.322C47.633 157.421 47.464 157.475 47.279 157.485 47.084 157.492 46.921 157.396 46.789 157.194V157.194L44.865 154.257 40.065 157.402 43.891 163.242C44.005 163.416 44.02 163.597 43.937 163.788 43.854 163.978 43.711 164.139 43.51 164.271V164.271C43.348 164.378 43.164 164.438 42.958 164.453 42.755 164.474 42.588 164.384 42.456 164.182ZM54.05 177.058V177.058C53.881 176.905 53.76 176.72 53.688 176.501 53.61 176.277 53.645 176.084 53.793 175.92V175.92L63.938 164.685C64.1 164.506 64.289 164.452 64.505 164.521 64.722 164.581 64.914 164.687 65.083 164.84V164.84C65.261 165.001 65.381 165.168 65.442 165.34 65.503 165.522 65.525 165.722 65.508 165.94 65.491 166.159 65.445 166.415 65.37 166.707V166.707L62.161 178.583 69.872 170.044C70.025 169.875 70.211 169.823 70.433 169.887 70.653 169.942 70.848 170.046 71.017 170.198V170.198C71.195 170.36 71.321 170.545 71.393 170.754 71.47 170.959 71.432 171.145 71.279 171.314V171.314L61.134 182.549C60.986 182.713 60.802 182.772 60.582 182.726 60.362 182.681 60.163 182.577 59.984 182.416V182.416C59.805 182.255 59.695 182.042 59.653 181.779 59.612 181.526 59.622 181.265 59.684 180.996V180.996L62.912 168.651 55.2 177.191C55.052 177.354 54.868 177.414 54.648 177.368 54.428 177.322 54.229 177.219 54.05 177.058ZM74.913 192.232V192.232C74.781 192.167 74.645 192.064 74.506 191.921 74.368 191.779 74.273 191.629 74.224 191.471 74.175 191.313 74.184 191.164 74.252 191.026V191.026C74.278 190.972 74.311 190.921 74.349 190.873V190.873L85.08 179.46C85.234 179.282 85.434 179.194 85.679 179.195 85.927 179.205 86.166 179.265 86.394 179.377V179.377C86.64 179.498 86.839 179.654 86.99 179.847 87.145 180.049 87.202 180.26 87.162 180.479V180.479L84.712 195.942C84.71 196.008 84.698 196.062 84.678 196.104V196.104C84.61 196.242 84.493 196.337 84.326 196.39 84.159 196.442 83.978 196.462 83.783 196.448 83.589 196.435 83.419 196.393 83.275 196.323V196.323C83.125 196.249 83.011 196.156 82.932 196.043 82.853 195.93 82.826 195.794 82.852 195.635V195.635L83.414 192.18 78.098 189.58 75.751 192.162C75.648 192.282 75.521 192.343 75.371 192.345 75.228 192.349 75.075 192.311 74.913 192.232ZM85.169 181.882L79.186 188.381 83.719 190.598ZM102.939 202.221V202.221C102.682 202.177 102.45 202.083 102.244 201.939 102.033 201.787 101.915 201.601 101.892 201.38V201.38L100.016 185.874C100.013 185.813 100.019 185.742 100.032 185.663V185.663C100.057 185.518 100.138 185.4 100.276 185.308 100.414 185.216 100.574 185.152 100.757 185.116 100.94 185.079 101.11 185.074 101.268 185.101V185.101C101.433 185.129 101.579 185.188 101.706 185.278 101.84 185.369 101.907 185.492 101.907 185.648V185.648L103.409 199.472 106.906 191.704C107 191.51 107.147 191.386 107.346 191.332 107.547 191.271 107.749 191.258 107.954 191.293V191.293C108.178 191.332 108.371 191.412 108.533 191.535 108.696 191.651 108.784 191.815 108.795 192.028V192.028L109.53 200.519 115.543 187.982C115.608 187.837 115.709 187.742 115.846 187.698 115.982 187.653 116.133 187.645 116.298 187.673V187.673C116.476 187.704 116.645 187.766 116.805 187.862 116.965 187.957 117.095 188.071 117.194 188.203 117.294 188.336 117.331 188.474 117.306 188.619V188.619C117.293 188.698 117.264 188.765 117.221 188.818V188.818L110.346 202.827C110.237 203.025 110.061 203.161 109.818 203.235 109.583 203.303 109.33 203.314 109.059 203.268V203.268C108.809 203.225 108.577 203.131 108.365 202.986 108.153 202.835 108.046 202.65 108.042 202.432V202.432L107.356 194.784 104.196 201.774C104.1 201.975 103.934 202.113 103.698 202.188 103.455 202.255 103.203 202.266 102.939 202.221ZM134.92 203.4V203.4C134.694 203.428 134.475 203.398 134.262 203.31 134.048 203.222 133.928 203.069 133.901 202.85V202.85L133.197 197.195C133.186 197.103 133.16 197.028 133.119 196.973V196.973L127.427 188.926C127.385 188.858 127.353 188.787 127.331 188.716 127.309 188.651 127.296 188.599 127.291 188.559V188.559C127.272 188.407 127.315 188.263 127.419 188.129 127.524 187.995 127.655 187.884 127.813 187.797 127.977 187.709 128.142 187.655 128.308 187.634V187.634C128.474 187.614 128.608 187.637 128.711 187.705 128.821 187.779 128.929 187.89 129.036 188.039V188.039L133.902 195.217 136.88 187.063C136.953 186.892 137.034 186.757 137.123 186.659 137.219 186.566 137.344 186.51 137.496 186.491V186.491C137.656 186.471 137.826 186.484 138.006 186.529 138.187 186.573 138.345 186.648 138.479 186.753 138.613 186.857 138.69 186.986 138.709 187.139V187.139C138.714 187.178 138.714 187.232 138.709 187.3 138.698 187.376 138.684 187.452 138.667 187.528V187.528L135.11 196.725C135.071 196.79 135.057 196.87 135.069 196.963V196.963L135.773 202.617C135.8 202.836 135.724 203.014 135.546 203.151 135.367 203.287 135.159 203.371 134.92 203.4ZM178.643 186.934L172.497 190.69C172.314 190.802 172.116 190.856 171.903 190.853 171.689 190.85 171.525 190.755 171.41 190.566V190.566L163.517 177.649C163.398 177.455 163.401 177.262 163.526 177.068 163.641 176.872 163.796 176.715 163.99 176.596V176.596C164.195 176.471 164.409 176.403 164.63 176.393 164.848 176.378 165.016 176.467 165.134 176.661V176.661L172.484 188.687 177.748 185.47C177.925 185.362 178.102 185.356 178.278 185.452 178.454 185.548 178.602 185.693 178.72 185.887V185.887C178.828 186.064 178.887 186.256 178.895 186.462 178.904 186.669 178.819 186.826 178.643 186.934ZM192.153 175.509V175.509C191.981 175.678 191.787 175.79 191.569 175.845 191.351 175.901 191.164 175.85 191.01 175.692V175.692L181.161 165.694 178.559 168.257C178.421 168.393 178.246 168.439 178.033 168.395 177.821 168.35 177.63 168.243 177.461 168.071V168.071C177.316 167.923 177.218 167.748 177.167 167.544 177.112 167.345 177.165 167.166 177.327 167.006V167.006L183.874 160.558C184.036 160.398 184.216 160.347 184.414 160.406 184.617 160.459 184.791 160.56 184.937 160.707V160.707C185.096 160.869 185.204 161.055 185.259 161.263 185.319 161.467 185.268 161.649 185.106 161.808V161.808L182.504 164.371 192.353 174.369C192.508 174.526 192.556 174.713 192.498 174.93 192.439 175.147 192.324 175.34 192.153 175.509ZM207.837 155.41L205.76 158.808C205.627 159.025 205.465 159.169 205.273 159.24 205.081 159.31 204.908 159.299 204.754 159.204V159.204L191.82 151.3C191.666 151.206 191.576 151.058 191.552 150.854 191.527 150.651 191.581 150.441 191.713 150.224V150.224L193.79 146.826C194.268 146.044 194.835 145.423 195.493 144.963 196.156 144.506 196.902 144.28 197.73 144.284 198.564 144.292 199.491 144.608 200.513 145.232V145.232L206.188 148.701C207.209 149.325 207.914 150.006 208.301 150.744 208.683 151.479 208.822 152.246 208.718 153.045 208.608 153.84 208.314 154.628 207.837 155.41ZM193.716 150.237L204.835 157.032 206.373 154.515C206.858 153.722 207.018 152.966 206.854 152.247 206.681 151.53 206.129 150.887 205.199 150.318V150.318L199.524 146.85C198.594 146.282 197.77 146.084 197.053 146.257 196.338 146.44 195.738 146.927 195.254 147.721V147.721ZM216.942 135.798V135.798C216.832 136.127 216.629 136.363 216.335 136.504 216.037 136.637 215.745 136.656 215.459 136.56V136.56C215.142 136.454 214.911 136.26 214.766 135.979 214.616 135.689 214.596 135.379 214.706 135.049V135.049C214.802 134.764 214.997 134.55 215.291 134.409 215.581 134.259 215.884 134.238 216.202 134.344V134.344C216.487 134.439 216.707 134.636 216.861 134.935 217.01 135.225 217.037 135.512 216.942 135.798ZM22.182 104.662C22.182 101.189 24.997 98.373 28.47 98.373 31.943 98.373 34.759 101.189 34.759 104.662 34.759 108.135 31.943 110.95 28.47 110.95 24.997 110.95 22.182 108.135 22.182 104.662ZM209.912 104.662C209.912 101.189 212.728 98.373 216.201 98.373 219.674 98.373 222.489 101.189 222.489 104.662 222.489 108.135 219.674 110.95 216.201 110.95 212.728 110.95 209.912 108.135 209.912 104.662Z" fill="#000000" data-fill-palette-color="accent"></path></svg></g></svg></g></svg></g><defs></defs></svg><rect width="395.52" height="119.52010147731367" fill="none" stroke="none" visibility="hidden"></rect></g></svg></g></svg>