<svg id="e63fa5b0-e50b-4dcf-94d9-4c2f991c6e6f" data-name="Layer 1" xmlns="http://www.w3.org/2000/svg" xmlns:xlink="http://www.w3.org/1999/xlink" width="865.76" height="682.89" viewBox="0 0 865.76 682.89"><defs><clipPath id="ee67bac3-1b61-4824-b1e1-70a131c283cc"><path id="ed38b7ef-8ba2-45aa-bafa-949713399794" data-name="SVGID" d="M193.24,285.22s-45.47,74.24,9.53,159.33a115.71,115.71,0,0,0,22.79,25.73c33.67,28.27,130.87,94.07,281.72,67.16,0,0,140.75-30.14,166.42-188.1,0,0,18-133.34-44.9-196.62,0,0-96.64-141-223.5-79.41,0,0-18.34,4.77-38.5,37,0,0-58.81,87.13-108.42,105.35C258.38,215.7,221,230.92,193.24,285.22Z" fill="none"/></clipPath></defs><path d="M193.24,285.22s-45.47,74.24,9.53,159.33a115.71,115.71,0,0,0,22.79,25.73c33.67,28.27,130.87,94.07,281.72,67.16,0,0,140.75-30.14,166.42-188.1,0,0,18-133.34-44.9-196.62,0,0-96.64-141-223.5-79.41,0,0-18.34,4.77-38.5,37,0,0-58.81,87.13-108.42,105.35C258.38,215.7,221,230.92,193.24,285.22Z" fill="#872e8a"/><path d="M193.24,285.22s-45.47,74.24,9.53,159.33a115.71,115.71,0,0,0,22.79,25.73c33.67,28.27,130.87,94.07,281.72,67.16,0,0,140.75-30.14,166.42-188.1,0,0,18-133.34-44.9-196.62,0,0-96.64-141-223.5-79.41,0,0-18.34,4.77-38.5,37,0,0-58.81,87.13-108.42,105.35C258.38,215.7,221,230.92,193.24,285.22Z" fill="#fff" opacity="0.7"/><g clip-path="url(#ee67bac3-1b61-4824-b1e1-70a131c283cc)"><rect x="275.49" y="349.34" width="431.05" height="14" fill="#bcbec0"/><rect x="275.49" y="363.34" width="431.05" height="189.58" fill="#a7a9ac"/><polygon points="275.49 363.34 706.54 412.85 706.54 363.34 275.49 363.34" opacity="0.2"/></g><polygon points="506.34 215.7 535.77 215 535.77 270.7 535.77 349.34 483.79 349.34 487.64 261.72 506.34 215.7" fill="#fff"/><path d="M497.29,167.59s-16.78,12.18-14.92,23.52c0,0,2.9-12.09,13.7-16.49A20.46,20.46,0,0,1,497.29,167.59Z" fill="#2f2e41"/><path d="M507.28,195.94v20.45s5,8,13.38,7.06c0,0,11.34-.93,14.31-6.5l-.37-28.73Z" fill="#f9b499"/><path d="M507.28,195.94v9.94s16.22-2.89,27.54-1l-.22-16.64Z" fill="#f7a48b"/><path d="M534.82,197.05s18.93,10.6,22.09,23.8L535,217Z" fill="#2f2e41"/><path d="M507.28,211.36s-4.6,1.5-5.94,4.34c0,0-28.69,0-31.53,10.46l-9,33.77-7.54,32.8a10,10,0,0,1-1.52,3.45L415.2,349.34h30l20.08-27.79-4,27.79h28.48S499.65,239,507.28,216.39Z" fill="#872e8a"/><path d="M507.28,211.36s-4.6,1.5-5.94,4.34c0,0-28.69,0-31.53,10.46l-9,33.77-7.54,32.8a10,10,0,0,1-1.52,3.45L415.2,349.34h30l20.08-27.79-4,27.79h28.48S499.65,239,507.28,216.39Z" fill="#fff" opacity="0.4"/><path d="M501.34,215.7l-2.72,5.65L495.86,227l-5.62,11.22,0-.44,3.59,9.33.07.18-.05.19-1.74,6.34-1.8,6.31,0-.25c.85,6,1.76,11.95,2.53,17.94s1.57,12,2.25,18q-1.67-8.91-3.13-17.85C491,272,490.09,266,489.15,260l0-.13,0-.12,1.74-6.34,1.81-6.31v.37l-3.49-9.37-.08-.23.11-.21,6-11,3-5.49Z" fill="#fff" opacity="0.4"/><path d="M463.15,320.55l7.43-50.88s.82-15.67-3.71-16.5c0,0-5.41,44.06-11,61.72a21.33,21.33,0,0,1-5.22,8.56L426,348.34h17.05Z" fill="#fff" opacity="0.4"/><path d="M535,212.48s-7.14,42-5.69,53.59l-6.66-4.35s2.6,11.88-10.43,20.57c0,0,11,8.4,15.93,10.43l.58,56.62h45.48s-8.4-25-6.95-37.5c0,0,5.79-11.3.87-23.18,0,0,8.6-40.42,1.81-59.15a8.33,8.33,0,0,0-3.46-4.27c-2.53-1.55-6.66-3.88-9.54-4.39C556.91,220.85,536.9,216,535,212.48Z" fill="#872e8a"/><path d="M535,212.48s-7.14,42-5.69,53.59l-6.66-4.35s2.6,11.88-10.43,20.57c0,0,11,8.4,15.93,10.43l.58,56.62h45.48s-8.4-25-6.95-37.5c0,0,5.79-11.3.87-23.18,0,0,8.6-40.42,1.81-59.15a8.33,8.33,0,0,0-3.46-4.27c-2.53-1.55-6.66-3.88-9.54-4.39C556.91,220.85,536.9,216,535,212.48Z" fill="#fff" opacity="0.4"/><path d="M540.27,215.7c.58,1.83,1.11,3.67,1.65,5.5s1,3.69,1.56,5.53q1.56,5.52,3,11.09l.09.32-.23.25c-2.05,2.23-4.1,4.46-6.17,6.66l.14-.57c1,4.05,2,8.13,2.91,12.21l0,.14-.05.11c-.7,1.82-1.37,3.64-2.11,5.45s-1.43,3.62-2.2,5.41c.54-1.87,1.13-3.73,1.7-5.59s1.2-3.7,1.8-5.56l0,.25q-1.71-6-3.27-12.12l-.08-.32.23-.26c2-2.23,4.11-4.44,6.18-6.65l-.15.57q-1.37-5.58-2.61-11.18c-.41-1.87-.86-3.73-1.23-5.61S540.62,217.58,540.27,215.7Z" fill="#fff" opacity="0.4"/><g opacity="0.4"><path d="M537.46,270.7c2,.82,3.91,1.76,5.82,2.74s3.77,2,5.6,3.14a59.55,59.55,0,0,1,5.35,3.6c.85.66,1.69,1.34,2.48,2.08a12.42,12.42,0,0,1,1.09,1.2,3.07,3.07,0,0,1,.74,1.43,3.39,3.39,0,0,0-.93-1.25,11.67,11.67,0,0,0-1.22-1c-.84-.65-1.72-1.25-2.61-1.83-1.78-1.14-3.59-2.27-5.41-3.37l-5.47-3.32-2.73-1.68C539.27,271.85,538.35,271.3,537.46,270.7Z" fill="#fff"/></g><path d="M528.12,292.72s28.39,22.88,39.11,19.12c0,0,0,7.2.2,9,0,0-26.85-9.56-39.31-20.86Z" fill="#fff" opacity="0.4"/><path d="M512.19,282.29s-4.26-16,10.43-20.57C522.62,261.72,524.42,275.38,512.19,282.29Z" fill="#872e8a"/><path d="M512.19,282.29s-4.26-16,10.43-20.57C522.62,261.72,524.42,275.38,512.19,282.29Z" fill="#fff" opacity="0.5"/><path d="M690.18,234.55v80.5a7.05,7.05,0,0,1-7,7.05H574.46a7.05,7.05,0,0,1-7-7.05v-80.5a7,7,0,0,1,7-7H683.15A7,7,0,0,1,690.18,234.55Z" fill="#2f2e41"/><path d="M690.18,234.55v80.5a7.05,7.05,0,0,1-7,7.05H574.46a7.05,7.05,0,0,1-7-7.05v-80.5a7,7,0,0,1,7-7H683.15A7,7,0,0,1,690.18,234.55Z" opacity="0.2"/><rect x="485.41" y="230.28" width="21.97" height="33" rx="3.18" transform="translate(27.24 -48.52) rotate(5.75)" fill="#e6e7e8"/><path d="M495.29,225.52h7.31a2,2,0,0,1,2,2v2.91a0,0,0,0,1,0,0H493.25a0,0,0,0,1,0,0v-2.91A2,2,0,0,1,495.29,225.52Z" transform="translate(25.37 -48.87) rotate(5.75)" fill="#872e8a"/><ellipse cx="319.85" cy="125.17" rx="18.28" ry="25.28" fill="#f9b499"/><path d="M296.39,165.35V148s2.16-16.65,1.68-17.29S310.42,128,310.42,128l13.35,21.91v23.19S303.27,164.8,296.39,165.35Z" fill="#f9b499"/><path d="M305.87,141.45s-2,18.4,17.9,18.67V149.86S312.87,154.4,305.87,141.45Z" fill="#f7a48b"/><path d="M296.39,150.5s-24.2-21.73-12.37-44.28c0,0,7.64-14.85,30.77-13.2,0,0,17.3,1.45,15.68,11.59,0,0-4.91-2.66-11.18,2.17a18.63,18.63,0,0,0-5.93,8.24c-1.4,3.76-3.29,9.58-2.94,12.93,0,0-4.13-8.53-8.53-8.8l-3.82,11.58Z" fill="#2f2e41"/><path d="M375.7,443l-2.89,110H342.59c-3.32-6.37-18.21-107.06-18.21-107.06L300.77,393.3l-5.37,43c-2.49,23.6-10.36,50.5-10.36,50.5l-12,62.1-23.6-2.08V474.43a116.47,116.47,0,0,1,.9-17.2A150.36,150.36,0,0,0,252.07,435l.44-52.47C251.11,335.34,263,304.3,263,304.3l32.36-19.46,52.56,11,12.58,8.51,13.09,95.62C375.29,411.1,375.7,443,375.7,443Z" fill="#2f2e41"/><path d="M272.41,309.52s13.44,11.48,46.17,0c0,0,7.17-5.32,19-3.57a32.45,32.45,0,0,0,23.71,4.16l-.8-5.81L348,295.78l-52.58-10.94Z" opacity="0.2"/><polygon points="254.78 552.92 254.78 575.84 270.18 575.84 271.64 552.06 254.78 552.92" fill="#f9b499"/><path d="M324.82,614.39a1.56,1.56,0,0,1-1.36,1.77A85.72,85.72,0,0,1,287,612l-40.19-11s1.14-28.24,7.93-25.12c0,0,7.15.36,9.71-2.57,0,0,10.64-9.53,15.4,2.57,0,0,9.44,14.95,22.77,25a13.45,13.45,0,0,0,4.95,2.31C312.7,604.29,324.05,607.67,324.82,614.39Z" fill="#872e8a"/><path d="M297,623.5l-48.77-10.08c-6.05-1.47-3.85-7.88-3.85-7.88,0-4.76,2.52-4.58,2.52-4.58L287,612a85.72,85.72,0,0,0,36.42,4.21,1.56,1.56,0,0,0,1.36-1.77C334,630.56,297,623.5,297,623.5Z" fill="#2f2e41"/><polygon points="370.25 583.49 354.93 587.42 350.59 558.86 370.25 558.86 370.25 583.49" fill="#f9b499"/><path d="M429.6,611.63a3.05,3.05,0,0,1-2.18,2.8c-5.43,1.58-17.41,3.45-39.79.1,0,0-31.66-4.35-38.08-2.9,0,0-5.12-30.43,7.69-27.73,0,0,3.49-.41,8.25-4.76,0,0,7.65-8.69,15.52,2.49,0,0,13.52,13.51,26.22,20.2a28,28,0,0,0,9.6,3c3.33.42,8.58,1.54,11.82,4.47A2.87,2.87,0,0,1,429.6,611.63Z" fill="#872e8a"/><path d="M401.3,625l-47-2.84c-7.67-.62-4.77-10.56-4.77-10.56,6.42-1.45,38.08,2.9,38.08,2.9,22.38,3.35,34.36,1.48,39.79-.1a3.05,3.05,0,0,0,2.18-2.8h0C441.79,627.37,401.3,625,401.3,625Z" fill="#2f2e41"/><path d="M254.12,373.49s-1.88,0-4.58-.21c-7-.63-19.44-3-18.66-12.23l6.55-54.28s.37-16.12,14.94-14l6-.18v6a5.29,5.29,0,0,0,1,2.27A15,15,0,0,0,263,304.3S251.51,334.61,254.12,373.49Z" fill="#872e8a"/><path d="M254.12,373.49s-1.88,0-4.58-.21c-7-.63-19.44-3-18.66-12.23l6.55-54.28s.37-16.12,14.94-14l6-.18v6a5.29,5.29,0,0,0,1,2.27A15,15,0,0,0,263,304.3S251.51,334.61,254.12,373.49Z" fill="#fff" opacity="0.4"/><path d="M254.12,373.49s-1.88,0-4.58-.21c.54-10.54,3.1-53.92,9.87-72.45A15,15,0,0,0,263,304.3S251.51,334.61,254.12,373.49Z" fill="#fff" opacity="0.4"/><path d="M300.77,393.3l-5.37,43c-2.49,23.6-10.36,50.5-10.36,50.5l-12,62.1-23.6-2.08s22.32,0,26.05-24.2c0,0,15.39-109.61,10.64-137.23,0,0-7.34-28.16-.86-36.09Z" opacity="0.2"/><ellipse cx="516.5" cy="177.48" rx="20.96" ry="24.76" fill="#f9b499"/><path d="M499,163.87s34.3,6.93,35.6,24.35l5.09-5.72-3.93-14.79-26.59-9.48Z" fill="#f7a48b"/><path d="M499,163.87s-5.55.38-1.36-7.48c0,0,11.27-17.81,35.11-8.64,0,0,21.8,10.42,11.69,37l-7.78-.53s-.77-10.84-12.82-14.51C523.84,169.75,508.21,161.92,499,163.87Z" fill="#2f2e41"/><path d="M530.51,173.22S545,178.5,546.34,165c0,0,3,7.36-1.9,19.84l-7.78-.53S535.25,176,530.51,173.22Z" opacity="0.2"/><ellipse cx="539.69" cy="188.22" rx="6.16" ry="4.85" transform="translate(106.84 561.49) rotate(-60)" fill="#f9b499"/><path d="M522.68,264.66l-12.44-10.49s4-10.16-3-13.25c0,0-.25,7-10,5,0,0-10.15-3.3-11-8,0,0-3.71,1.85-2.06,5.57,0,0-4.74.82-2.89,6.6,0,0-2.3,3-.43,5.74,0,0-2.87,4.82,5.59,8.92,0,0,6.22,3.38,18.15,1.84l12.49,11.9S522.34,274.18,522.68,264.66Z" fill="#f9b499"/><path d="M512.19,273.66s6.44-1.34,10.49-9c0,0,0,8.53-5.52,13.74Z" fill="#f7a48b"/><path d="M480.93,255.74a8.66,8.66,0,0,1,3,1.8,8.79,8.79,0,0,1,2.17,2.77,8.79,8.79,0,0,1-3-1.8A8.91,8.91,0,0,1,480.93,255.74Z" fill="#f7a48b"/><path d="M481.36,250a7.31,7.31,0,0,1,2.8,1.6,7.43,7.43,0,0,1,1.95,2.57,7.24,7.24,0,0,1-2.8-1.6A7.52,7.52,0,0,1,481.36,250Z" fill="#f7a48b"/><path d="M484.25,243.4a10.88,10.88,0,0,1,5.5,4.95,11,11,0,0,1-5.5-4.95Z" fill="#f7a48b"/><path d="M684.86,234.54v80.52a7,7,0,0,1-7,7H569.15a7,7,0,0,1-7-7V234.54a7,7,0,0,1,7-7H677.82A7,7,0,0,1,684.86,234.54Z" fill="#2f2e41"/><path d="M656.05,227.51,580.47,322.1H569.15a7.05,7.05,0,0,1-7-7.05v-80.5a7,7,0,0,1,7-7Z" fill="#fff" opacity="0.2"/><path d="M684.86,257.63v57.43a7,7,0,0,1-7,7h-29.9Z" fill="#fff" opacity="0.2"/><polygon points="604.71 349.34 623.49 341.77 623.49 314.16 641.42 314.16 651.7 349.34 604.71 349.34" fill="#2f2e41"/><polygon points="604.71 349.34 626.15 344.41 623.49 325.91 623.49 341.77 604.71 349.34" opacity="0.2"/><polygon points="611.75 322.09 623.49 314.16 623.49 322.09 611.75 322.09" fill="#fff" opacity="0.2"/><path d="M296.39,165.35s-5.72-.3-10.38,9c0,0-21.11,35.09-21.42,53.72l-6.21,70.48s11,23,47.43,6.21c0,0,16.53-12.11,26.46-6.21,0,0,23.91,22.66,33.53-2.8L377.6,265s4.35-4.06,7.45-7l-29.8-55.71s-13-26.85-31.48-29.26C323.77,173.05,307.09,166,296.39,165.35Z" fill="#872e8a"/><path d="M346.22,188.3a57.35,57.35,0,0,0-4.94,3.3c-1.6,1.16-3.15,2.39-4.63,3.7a53.22,53.22,0,0,0-8,8.61,36.58,36.58,0,0,0-5.38,10.35A28.65,28.65,0,0,0,322,220a36.3,36.3,0,0,0-.3,5.91,28.11,28.11,0,0,1,.64-11.92,32.84,32.84,0,0,1,5.29-10.82,44.22,44.22,0,0,1,8.39-8.62A46.76,46.76,0,0,1,346.22,188.3Z" opacity="0.2"/><path d="M319.85,234.29s6.55,47.19,10.73,51.85l22.8-7.74s7.76,15.81,12.42,17.36l-1.6,3.56S350.9,279,344.07,286.14c0,0-16.46,17.07-18.63,2.79C325.44,288.93,310.84,231.8,319.85,234.29Z" opacity="0.2"/><path d="M426.75,252.09a151.83,151.83,0,0,0,41.43-.94c3.3-.92-2.93-2.8-2.93-2.8,9.71-3.17,10.08-6.6,10.08-6.6-.18-2.43-10.45-1.6-10.45-1.6,7.88-3.85,5.68-5.94,5.68-5.94-1.59-1.78-10.18,1.55-14.81,3.52a14,14,0,0,1-6.39,1.11l-12.27-.77a2.81,2.81,0,0,1-2.44-3.8c2.07-5.65,2-9.15,1.41-11.19a1.21,1.21,0,0,0-2.21-.3c-2.51,4.15-9.54,11.43-9.54,11.43a10,10,0,0,0-4.38,7.24,6.09,6.09,0,0,1-1.79,3.52C401,261.58,379.77,270.3,379.77,270.3L377.6,265c-7.45,7-24.22,13.38-24.22,13.38s9,26.54,27.17,17.38c0,0,16.5-8.85,31.62-28Z" fill="#f9b499"/><path d="M252.37,292.72s-1.21,3.25,3,4.36c0,0,5.5,1.78,6.74,0s45.51-86.36,45.51-86.36,15-28.86,30.46-30.79c0,0-4.17-3.79-8.15-5.13,0,0-14.76,4-24.31,23Z" fill="#2f2e41"/><path d="M453.42,243.4a30.13,30.13,0,0,1,5.64-2c1-.24,1.92-.48,2.89-.67l2.93-.58a9.23,9.23,0,0,1-2.64,1.54,22.68,22.68,0,0,1-2.85.95A21.68,21.68,0,0,1,453.42,243.4Z" fill="#f7a48b"/><path d="M454.8,246.78c3.42-1,6.86-1.74,10.29-2.51,1.72-.37,3.43-.76,5.14-1.15s3.41-.79,5.1-1.37a19.69,19.69,0,0,1-4.82,2.33,46.74,46.74,0,0,1-5.14,1.44A51.49,51.49,0,0,1,454.8,246.78Z" fill="#f7a48b"/><path d="M456.45,250a18,18,0,0,1,5-1.24,18.45,18.45,0,0,1,5.14,0,18.08,18.08,0,0,1-5,1.24A18.77,18.77,0,0,1,456.45,250Z" fill="#f7a48b"/><ellipse cx="301.89" cy="125.89" rx="5.5" ry="6.74" fill="#f9b499"/><path d="M247.31,551.4s-2-6.69,2.14-4.53L273,548.94s5.11-1.7,2.45,5.43l-1.28,3.32-24.76-1.47S247.69,555.32,247.31,551.4Z" fill="#2f2e41"/><path d="M342.58,552.92s-3.17,1.17-2.14,5.11l.23,1.18a4.56,4.56,0,0,0,4.79,3.72l26.24-1.8s4.9-1.93,1.1-8.21Z" fill="#2f2e41"/><path d="M417.31,429.86q-2.25,2.17-6.86,2.17h-5.06v11H402V416.69h8.5q4.46,0,6.78,2.16a7.76,7.76,0,0,1,.08,11ZM414.68,428A4.55,4.55,0,0,0,416,424.4q0-4.87-5.59-4.87h-5.06v9.67h5.06A6.09,6.09,0,0,0,414.68,428Z" fill="#fff"/><path d="M444.11,416.69V443h-3.44V431.09H427.26V443h-3.44V416.69h3.44v11.56h13.41V416.69Z" fill="#fff"/><path d="M465.53,437.17H454.05L451.93,443H448.3l9.52-26.19h4L471.27,443h-3.62Zm-1-2.8-4.76-13.29L455,434.37Z" fill="#fff"/><path d="M489.29,443,483,432.26h-4.15V443h-3.44V416.69h8.5a11.26,11.26,0,0,1,5,1,7.06,7.06,0,0,1,3.08,2.76A7.63,7.63,0,0,1,486.8,432l6.61,11ZM478.87,429.5h5.06a5.73,5.73,0,0,0,4.19-1.38,5,5,0,0,0,1.4-3.68,4.73,4.73,0,0,0-1.38-3.63,6,6,0,0,0-4.21-1.28h-5.06Z" fill="#fff"/><path d="M525.11,416.88V443h-3.44v-19.5L513,443h-2.42l-8.72-19.54V443H498.4V416.88h3.7l9.67,21.61,9.67-21.61Z" fill="#fff"/><path d="M546.49,437.17H535L532.89,443h-3.63l9.52-26.19h4L552.23,443H548.6Zm-1-2.8-4.76-13.29L536,434.37Z" fill="#fff"/><path d="M556.84,422.91a12.69,12.69,0,0,1,4.74-4.82,13.07,13.07,0,0,1,6.67-1.74,13.58,13.58,0,0,1,7.52,2.08,11.9,11.9,0,0,1,4.68,5.9h-4.12a8.29,8.29,0,0,0-3.15-3.67,9.1,9.1,0,0,0-4.93-1.28,9.56,9.56,0,0,0-5,1.28,9,9,0,0,0-3.44,3.65,12.88,12.88,0,0,0,0,11A9,9,0,0,0,563.3,439a9.57,9.57,0,0,0,5,1.29,9.18,9.18,0,0,0,4.93-1.27,8.16,8.16,0,0,0,3.15-3.64h4.12a11.77,11.77,0,0,1-4.68,5.83,13.57,13.57,0,0,1-7.52,2.06,13.15,13.15,0,0,1-6.67-1.72,12.51,12.51,0,0,1-4.74-4.78,14.63,14.63,0,0,1,0-13.84Z" fill="#fff"/><path d="M604,416.69l-8.58,16.4V443H592v-9.94l-8.61-16.4h3.82L593.67,430l6.5-13.34Z" fill="#fff"/></svg>